<svg xmlns="http://www.w3.org/2000/svg" width="360" height="320" viewBox="0 0 360 320" fill="none"><path fill-rule="evenodd" clip-rule="evenodd" d="M195.624 195.951C181.601 196.331 167.679 200.032 153.634 201.017C136.464 202.22 118.999 201.39 101.969 204.445C96.8765 205.36 87.5515 206.298 92.7694 213.394C95.3377 216.885 99.9577 216.877 102.371 221.231C96.2307 230.088 72.5844 228.638 63.6175 230.907C56.5841 232.686 25.1222 235.427 24.0521 245.848C22.9414 256.675 39.8974 264.494 45.8053 267.528C61.765 275.727 80.6916 277.078 97.9503 279.746C135.213 285.506 174.952 285.764 212.584 285.126C233.366 284.772 253.942 285.159 274.747 283.554C279.175 283.214 299.489 284.1 302.176 278.934C304.526 274.413 294.559 271.373 292.246 270.354C281.53 265.635 270.304 267.085 259.507 263.646C266.932 259.265 278.441 259.542 286.818 258.505C299.641 256.915 314.818 256.727 326.756 250.708C348.693 239.653 321.383 226.693 310.519 222.929C297.279 218.346 283.6 218.298 270.219 215.586C262.706 214.065 251.75 214.615 245.747 208.862C250.027 205.888 273.12 204.065 274.275 199.154C275.699 193.105 258.994 193.319 255.529 193.172" fill="#E2EFFF"></path><path fill-rule="evenodd" clip-rule="evenodd" d="M185.269 245.662C185.782 243.968 185.697 242.426 185.731 240.891C185.745 240.256 185.69 239.618 185.745 238.987C186.074 235.142 185.391 231.374 184.609 227.666C184.018 224.857 183.203 222.049 181.557 219.581C180.638 218.2 179.535 217.16 177.908 216.743C177.731 216.699 177.561 216.636 177.465 216.311C178.048 216.197 178.627 216.02 179.218 215.979C180.443 215.89 181.653 215.747 182.852 215.477C184.598 215.082 186.373 215.23 188.137 215.211C188.225 215.211 188.325 215.2 188.406 215.23C191.602 216.33 194.989 216.972 197.716 219.182C198.65 219.938 199.395 220.831 199.801 221.975C200.388 223.632 201.406 225.112 201.702 226.898C201.834 227.706 201.986 228.5 201.986 229.315C201.986 230.267 201.938 231.223 201.978 232.171C202.133 235.762 200.115 238.068 197.403 239.972C197.218 240.101 197.011 240.205 196.827 240.334C194.262 242.16 191.417 243.415 188.472 244.467C187.461 244.828 186.524 245.393 185.269 245.659V245.662Z" fill="white"></path><path fill-rule="evenodd" clip-rule="evenodd" d="M169.406 231.168C169.133 228.367 169.598 225.81 169.775 223.234C169.804 222.832 169.963 222.581 170.251 222.323C170.922 221.717 171.605 221.112 172.196 220.426C173.011 219.481 173.996 219.481 175.044 219.787C175.694 219.979 176.306 220.286 176.941 220.525C177.336 220.677 177.668 220.917 177.897 221.26C178.524 222.201 179.185 223.134 179.531 224.223C180.937 228.644 181.945 233.131 181.771 237.821C181.716 239.315 181.797 240.814 181.801 242.308C181.801 243.124 181.731 243.935 181.576 244.74C181.321 246.046 180.469 247.009 179.432 247.589C178.413 248.157 177.118 248.065 176.011 247.618C174.395 246.965 172.967 246.028 172.17 244.356C170.579 241.017 169.398 237.574 169.409 233.814C169.409 232.861 169.409 231.909 169.409 231.16L169.406 231.168ZM176.897 227.74C176.852 227.157 176.897 226.548 176.749 225.99C176.491 224.99 175.982 224.175 174.812 223.99C173.69 223.817 173 224.094 172.365 225.223C171.472 226.81 171.402 228.529 172.015 230.186C172.354 231.098 173.273 231.592 174.303 231.596C175.277 231.596 176.033 231.197 176.461 230.253C176.827 229.444 176.886 228.603 176.897 227.736V227.74ZM174.111 240.363C174.1 240.954 174.181 241.533 174.306 242.109C174.506 243.024 175.089 243.478 175.989 243.618C176.948 243.766 177.816 243.862 178.554 242.939C179.384 241.906 179.447 239.426 178.266 238.16C177.369 237.197 175.804 237.035 174.919 237.991C174.314 238.64 174.085 239.47 174.111 240.363V240.363Z" fill="white"></path><path fill-rule="evenodd" clip-rule="evenodd" d="M132.611 245.813C132.611 247.304 132.574 248.349 132.622 249.389C132.67 250.441 132.32 251.345 131.766 252.201C130.323 254.43 128.408 255.943 125.685 256.308C124.519 256.463 123.382 256.902 122.22 256.965C120.408 257.065 118.578 256.876 116.88 256.205C114.434 255.238 112.12 253.961 109.925 252.529C107.485 250.943 106.349 248.563 106.382 245.607C106.43 241.367 108.19 238.049 111.497 235.448C113.995 233.481 116.556 231.618 119.382 230.153C121.755 228.924 124.202 227.857 126.825 227.256C127.818 227.027 127.811 227.046 128.29 227.942C130.77 232.61 132.047 237.61 132.423 242.861C132.504 243.994 132.571 245.123 132.619 245.813H132.611Z" fill="white"></path><path fill-rule="evenodd" clip-rule="evenodd" d="M149.545 225.02C149.483 225.728 149.033 225.927 148.693 226.193C147.479 227.145 146.173 227.957 144.734 228.529C141.59 229.78 138.438 231.023 135.283 232.245C134.877 232.4 134.368 232.809 134.076 232.02C133.634 230.82 133.689 230.761 134.35 230.293C135.25 229.654 136.217 229.208 137.243 228.846C139.881 227.92 142.339 226.503 145.11 225.935C146.56 225.636 147.955 225.068 149.545 225.02V225.02Z" fill="white"></path><path fill-rule="evenodd" clip-rule="evenodd" d="M151.527 239.737C151.343 240.309 150.959 240.608 150.542 240.866C149.929 241.246 149.306 241.608 148.619 241.855C145.261 243.062 141.985 244.49 138.531 245.42C137.833 245.608 137.258 246.073 136.549 246.416C136.494 245.604 136.508 244.881 136.383 244.184C136.276 243.59 136.523 243.398 137.018 243.228C139.501 242.383 141.992 241.578 144.531 240.925C146.586 240.394 148.623 239.77 150.752 239.601C150.974 239.582 151.203 239.527 151.531 239.737H151.527Z" fill="white"></path><path fill-rule="evenodd" clip-rule="evenodd" d="M180.959 34.0572C185.989 34.2121 191.022 34.4077 195.978 35.4004C199.185 36.0424 202.299 36.9945 205.255 38.4189C206.886 39.2049 208.602 39.8101 210.177 40.7141C212.709 42.168 214.901 44.0758 217.174 45.8766C221.484 49.2899 224.074 53.8435 225.838 58.947C226.414 60.6149 227.034 62.2681 227.628 63.9323C228.801 67.2128 229.351 70.5967 229.3 74.0727C229.259 76.7481 229.008 79.4123 228.702 82.0729C228.536 83.5231 228.182 84.9217 227.624 86.2723C226.48 89.0288 225.772 91.955 224.362 94.6119C222.144 98.7965 219.602 102.715 216.074 105.974C213.2 108.627 210.037 110.907 207 113.343C203.329 116.291 199.52 119.074 195.753 121.904C194.192 123.074 192.48 124.011 190.815 125.022C188.147 126.642 185.384 128.092 182.812 129.893C179.62 132.126 176.9 134.834 174.402 137.771C173.07 139.336 172.321 141.185 172.099 143.318C171.874 145.491 171.948 147.58 172.701 149.606C173.941 152.934 175.745 155.823 178.885 157.776C181.55 159.432 183.919 161.503 185.738 164.089C187.04 165.945 188.24 167.957 188.686 170.163C189.111 172.259 189.339 174.477 188.749 176.636C188.568 177.293 188.347 177.931 187.952 178.499C187.509 179.134 187.195 179.839 186.856 180.529C185.952 182.378 184.849 184.086 183.088 185.252C181.579 186.248 180.07 187.212 178.306 187.769C175.679 188.599 173.07 189.499 170.531 190.584C169.147 191.175 168.04 192.064 167.442 193.488C167.106 194.286 166.416 194.857 166.169 195.717C165.638 197.592 165.582 199.47 165.966 201.367C166.272 202.876 166.594 204.382 166.9 205.891C166.944 206.112 166.966 206.341 166.963 206.566C166.951 207.256 166.793 207.408 166.147 207.175C164.439 206.563 162.748 205.906 161.431 204.574C159.59 202.714 157.675 200.942 156.246 198.68C154.678 196.19 154.97 191.012 157.527 188.713C159.147 187.256 160.83 185.913 162.656 184.706C165.601 182.761 168.645 180.949 171.28 178.555C172.099 177.813 172.461 176.979 172.405 175.924C172.328 174.433 171.826 173.078 170.852 171.96C170.14 171.145 169.317 170.422 168.542 169.661C167.63 168.765 166.435 168.278 165.258 167.791C162.664 166.72 159.973 165.905 157.427 164.713C156.649 164.348 155.925 163.886 155.206 163.41C153.811 162.484 152.265 161.838 150.745 161.13C146.807 159.3 142.933 157.37 139.622 154.414C137.67 152.668 135.759 150.849 133.608 149.325C132.438 148.499 131.659 147.299 130.744 146.244C128.759 143.949 126.881 141.561 124.965 139.203C124.249 138.318 123.666 137.34 123.19 136.31C121.652 132.978 120.032 129.686 118.319 126.443C117.227 124.369 116.77 122.096 116.124 119.882C115.076 116.31 114.349 112.671 113.925 108.974C113.873 108.524 113.814 108.07 113.696 107.634C113.032 105.191 113.113 102.701 113.142 100.206C113.164 98.3943 113.238 96.564 113.024 94.7743C112.67 91.8074 112.865 88.907 113.401 85.9881C113.611 84.8368 113.526 83.6264 113.733 82.4751C115.017 75.3385 117.161 68.5339 121.083 62.3234C123.349 58.7403 125.644 55.1831 128.796 52.3675C133.471 48.194 138.49 44.467 144.338 41.9983C147.589 40.6256 150.774 39.0942 154.047 37.7547C158.461 35.9465 163.066 35.0609 167.778 34.6439C172.158 34.2564 176.546 33.8468 180.955 34.0572H180.959ZM163.446 202.511C163.464 202.116 163.479 201.983 163.475 201.847C163.468 201.621 163.464 201.393 163.431 201.168C162.951 197.621 163.52 194.367 165.693 191.381C166.808 189.846 168.162 188.758 169.808 187.961C172.173 186.813 174.704 186.079 177.147 185.123C179.944 184.031 182.251 182.411 183.479 179.551C183.675 179.093 183.867 178.625 184.147 178.215C185.668 175.983 185.527 173.455 184.9 171.123C183.955 167.617 182.099 164.576 178.907 162.51C177.472 161.58 175.966 160.698 174.808 159.399C173.963 158.455 173.166 157.462 172.394 156.455C171.151 154.827 169.948 153.133 169.516 151.108C168.811 147.816 168.557 144.465 168.963 141.107C169.169 139.395 169.63 137.683 170.701 136.299C172.062 134.543 173.597 132.923 175.276 131.458C179.343 127.9 183.753 124.779 188.266 121.841C192.144 119.317 196.03 116.808 199.679 113.97C203.543 110.966 207.336 107.867 211.174 104.826C213.454 103.018 215.462 100.915 217.214 98.5825C220.617 94.0584 222.462 88.7889 224.373 83.5526C224.558 83.0508 224.576 82.4862 224.646 81.9474C225.012 79.1097 225.218 76.261 225.252 73.4011C225.274 71.438 225.067 69.4896 224.536 67.6114C223.466 63.8179 222.148 60.102 220.525 56.5078C219.569 54.3971 218.41 52.3823 216.738 50.7402C214.761 48.7992 212.62 47.0464 210.443 45.3415C209.875 44.895 209.295 44.4301 208.653 44.1127C203.033 41.3045 197.284 38.965 190.922 38.3672C183.944 37.7141 176.978 37.596 169.996 38.2085C166.11 38.548 162.217 38.8543 158.483 40.0868C153.095 41.8654 147.929 44.205 142.844 46.6737C138.368 48.8471 134.611 52.1313 131.025 55.5447C127.397 58.9986 125.106 63.4268 122.607 67.6815C121.877 68.925 121.275 70.2498 120.855 71.6483C119.81 75.117 119.058 78.6669 117.858 82.0877C117.77 82.3423 117.733 82.6153 117.703 82.8847C117.482 85.0951 117.249 87.3092 116.836 89.4937C116.633 90.5786 116.563 91.6783 116.714 92.7447C116.917 94.1506 116.784 95.5455 116.832 96.9441C116.902 98.981 116.891 101.018 117.032 103.059C117.205 105.568 117.95 107.959 118.216 110.439C118.415 112.299 118.91 114.088 119.441 115.867C120.035 117.863 120.622 119.863 121.253 121.849C121.611 122.97 121.821 124.133 122.312 125.218C123.748 128.395 125.242 131.543 126.833 134.65C128.257 137.432 130.305 139.727 132.109 142.214C132.847 143.233 133.67 144.189 134.597 145.078C136.073 146.491 137.659 147.772 139.124 149.189C141.117 151.111 143.261 152.849 145.445 154.539C146.128 155.067 146.881 155.48 147.615 155.934C150.132 157.491 152.951 158.414 155.542 159.82C156.335 160.248 157.125 160.676 157.981 160.997C159.97 161.742 161.988 162.41 163.915 163.329C166.763 164.683 169.664 165.809 171.955 168.226C173.505 169.861 174.704 171.584 175.45 173.625C176.21 175.702 175.49 177.724 174.811 179.706C174.782 179.787 174.704 179.85 174.649 179.924C173.479 181.396 172.095 182.625 170.442 183.521C167.571 185.079 164.778 186.758 162.084 188.603C160.959 189.374 160.029 190.37 159.176 191.433C158.774 191.939 158.608 192.54 158.435 193.16C157.793 195.433 158.988 197.116 160.243 198.725C161.202 199.957 162.354 201.046 163.446 202.526V202.511Z" fill="#FFB800"></path><path fill-rule="evenodd" clip-rule="evenodd" d="M289.667 234.788C289.098 235.153 288.486 235.463 287.969 235.888C285.559 237.865 282.814 239.216 279.973 240.452C275.637 242.342 271.15 243.744 266.592 244.932C263.655 245.699 260.6 245.88 257.629 246.474C253.389 247.323 249.127 246.888 244.876 246.939C241.662 246.98 238.474 246.485 235.278 246.179C233.02 245.961 230.662 243.722 230.396 241.412C230.134 239.127 230.776 237.105 231.625 235.098C232.366 233.345 233.156 231.614 233.998 229.91C234.455 228.98 234.355 228.042 234.2 227.123C234.101 226.533 233.555 226.183 232.979 225.943C230.093 224.743 227.112 224.382 224.06 225.057C220.215 225.909 216.359 226.743 212.606 227.969C211.226 228.419 209.798 228.677 208.384 229.002C208.03 229.083 207.68 229.168 207.333 229.279C205.587 229.825 205.495 229.832 205.624 231.596C205.971 236.297 203.525 239.596 200.299 242.533C198.325 243.449 196.709 244.936 194.698 245.843C192.177 246.98 189.587 247.932 187.056 249.028C186.557 249.246 186.1 249.534 185.628 249.81C184.148 250.677 182.642 251.327 180.816 251.235C179.757 251.183 178.661 251.39 177.572 251.338C174.288 251.179 171.856 249.515 169.963 246.962C169.015 245.677 168.432 244.187 167.919 242.681C166.83 239.489 166.118 236.242 166.332 232.825C166.476 230.518 166.254 228.197 166.701 225.906C167.206 223.319 167.775 220.758 169.203 218.489C169.856 217.448 170.624 216.544 171.742 215.917C172.59 215.441 173.221 214.625 174.188 214.263C175.72 213.691 177.225 213.06 178.867 212.887C180.805 212.68 182.694 212.182 184.639 212.02C187.008 211.821 189.318 211.876 191.594 212.765C193.82 213.636 196.185 214.108 198.24 215.459C200.458 216.913 202.229 218.625 203.277 221.149C204.111 223.157 205.06 225.105 205.432 227.378C206.351 226.998 207.148 226.603 207.99 226.337C213.038 224.729 218.097 223.149 223.3 222.109C227.071 221.356 230.765 221.526 234.37 223.016C237.415 224.275 238.356 227.681 237.488 230.408C237.108 231.607 236.47 232.729 235.939 233.88C235.197 235.485 234.514 237.116 233.957 238.795C233.389 240.508 234.193 242.131 235.747 242.434C236.182 242.519 236.651 242.397 237.094 242.463C242.544 243.271 248.038 243.072 253.515 243.057C255.083 243.054 256.647 242.615 258.212 242.378C260.673 242.002 263.164 241.758 265.574 241.127C269.777 240.028 273.913 238.722 277.947 237.057C281.08 235.766 283.98 234.149 286.659 232.101C288.246 230.891 289.762 229.596 291.132 228.142C291.379 227.88 291.633 227.633 291.707 227.245C291.844 226.529 291.715 226.275 291.01 226.042C289.331 225.481 287.589 225.171 285.873 224.751C285.652 224.695 285.408 224.706 285.205 224.618C283.342 223.802 281.397 223.19 279.596 222.23C277.895 220.489 277.733 218.334 278.209 216.149C278.725 213.791 280.382 212.334 282.63 211.581C286.884 210.156 291.227 209.075 295.659 208.352C296.062 208.285 296.453 208.167 296.859 208.112C297.741 207.99 298.42 208.426 298.626 209.219C298.833 210.012 298.453 210.758 297.586 211.009C296.718 211.26 295.818 211.411 294.925 211.555C291.113 212.16 287.416 213.227 283.751 214.393C281.648 215.061 280.84 216.5 281.102 218.688C281.179 219.326 281.46 219.85 282.024 220.101C283.427 220.732 284.851 221.308 286.279 221.872C286.563 221.987 286.903 221.961 287.22 222.002C287.726 222.33 288.316 222.393 288.884 222.515C290.346 222.828 291.799 223.208 293.168 223.802C295.253 224.71 295.833 226.142 294.973 228.171C294.39 229.548 293.822 230.917 292.788 232.031C291.748 232.954 290.707 233.876 289.667 234.799V234.788ZM185.27 245.663C186.521 245.401 187.458 244.836 188.473 244.471C191.417 243.419 194.262 242.161 196.827 240.338C197.012 240.205 197.218 240.105 197.403 239.976C200.111 238.072 202.13 235.766 201.978 232.175C201.938 231.223 201.982 230.271 201.986 229.319C201.986 228.504 201.835 227.707 201.702 226.902C201.406 225.116 200.388 223.636 199.801 221.979C199.395 220.836 198.65 219.943 197.716 219.186C194.993 216.976 191.602 216.337 188.406 215.234C188.325 215.204 188.225 215.215 188.137 215.215C186.373 215.234 184.598 215.086 182.853 215.481C181.657 215.751 180.443 215.894 179.218 215.983C178.631 216.027 178.052 216.201 177.465 216.315C177.561 216.64 177.727 216.703 177.908 216.747C179.535 217.164 180.638 218.204 181.557 219.585C183.203 222.053 184.019 224.861 184.609 227.67C185.391 231.378 186.074 235.146 185.746 238.991C185.69 239.622 185.746 240.26 185.731 240.895C185.698 242.43 185.783 243.973 185.27 245.666V245.663ZM169.406 231.168C169.406 231.917 169.406 232.869 169.406 233.821C169.395 237.578 170.572 241.02 172.166 244.364C172.963 246.035 174.387 246.973 176.007 247.626C177.114 248.072 178.413 248.164 179.428 247.596C180.469 247.017 181.317 246.057 181.572 244.747C181.727 243.939 181.801 243.131 181.797 242.316C181.797 240.821 181.712 239.319 181.768 237.828C181.941 233.138 180.934 228.655 179.528 224.23C179.181 223.142 178.52 222.208 177.893 221.267C177.664 220.924 177.332 220.684 176.937 220.533C176.303 220.293 175.69 219.987 175.041 219.795C173.993 219.489 173.007 219.489 172.192 220.433C171.601 221.116 170.919 221.725 170.247 222.33C169.959 222.588 169.797 222.839 169.771 223.241C169.594 225.817 169.129 228.374 169.402 231.175L169.406 231.168Z" fill="#007BFC"></path><path fill-rule="evenodd" clip-rule="evenodd" d="M85.8246 219.499C85.2489 222.772 83.3153 225.141 80.7507 227.085C80.2082 227.495 79.6584 227.908 79.0606 228.229C74.4516 230.683 70.363 233.979 65.7614 236.447C63.6765 237.565 62.027 239.163 60.8978 241.256C60.4661 242.06 60.1746 242.901 60.2115 243.85C60.2336 244.37 60.4034 244.702 60.8683 244.924C61.8093 245.37 62.6839 245.935 63.6802 246.274C67.0013 247.403 70.3556 248.16 73.9129 248.141C78.4591 248.119 82.9426 247.662 87.4482 247.119C91.7767 246.595 96.0093 245.636 100.29 244.912C101.046 244.783 101.81 244.662 102.574 244.606C103.264 244.558 103.526 244.237 103.5 243.566C103.445 242.042 103.943 240.636 104.393 239.208C105.076 237.053 106.378 235.37 108.098 233.956C109.641 232.687 111.098 231.311 112.7 230.13C115.183 228.303 117.81 226.676 120.692 225.547C122.497 224.838 124.25 224.012 126.202 223.665C128.833 223.196 130.372 223.838 131.534 226.222C131.892 226.953 132.172 227.724 132.741 228.336C135.826 226.506 139.139 225.218 142.501 224.056C144.165 223.48 145.907 223.13 147.612 222.672C148.457 222.443 149.32 222.429 150.18 222.499C151.339 222.591 151.889 223.104 152.117 224.229C152.446 225.831 151.841 227.074 150.608 228.049C148.818 229.458 146.896 230.643 144.734 231.41C141.7 232.484 138.763 233.787 135.84 235.13C135.195 235.425 135.065 235.709 135.268 236.359C135.674 237.654 135.877 238.997 135.999 240.318C136.335 240.481 136.571 240.285 136.811 240.196C140.726 238.75 144.722 237.591 148.826 236.824C149.759 236.65 150.704 236.521 151.652 236.473C153.461 236.381 154.42 237.595 154.593 238.997C154.848 241.067 153.844 242.366 152.346 243.447C151.538 244.027 150.645 244.484 149.7 244.828C146.387 246.038 143.136 247.433 139.733 248.4C138.634 248.713 137.848 249.654 136.689 249.868C136.372 249.927 136.416 250.407 136.346 250.706C135.18 255.562 132.121 258.566 127.349 259.865C125.109 260.474 122.814 260.71 120.489 260.702C117.973 260.695 115.67 260.023 113.582 258.606C113.172 258.33 112.714 258.116 112.261 257.92C110.755 257.267 109.364 256.415 108.013 255.503C105.777 253.997 104.434 251.791 103.622 249.3C103.275 248.237 103.109 248.259 102.198 248.4C100.05 248.735 97.9023 249.075 95.7768 249.507C93.3339 250.001 90.8763 250.352 88.3929 250.577C85.736 250.82 83.1086 251.462 80.437 251.488C76.2303 251.532 71.9903 251.769 67.85 250.791C65.3887 250.208 62.9532 249.47 60.6728 248.322C60.551 248.259 60.4329 248.197 60.3111 248.134C57.0712 246.529 56.3553 245.027 57.7354 240.979C58.6801 238.208 60.6063 235.979 63.1488 234.536C67.6508 231.982 71.8058 228.89 76.3114 226.359C78.5772 225.085 80.7433 223.668 82.0422 221.288C82.2562 220.897 82.592 220.558 82.5514 220.063C82.5625 220.019 82.5809 219.975 82.5846 219.93C82.8208 217.237 82.5809 216.901 80.2377 215.687C78.0679 214.561 75.769 214.565 73.4627 214.794C69.9903 215.141 66.5327 215.602 63.1082 216.314C61.8683 216.572 60.5879 216.62 59.3517 216.882C57.4439 217.288 55.6062 217.956 53.8202 218.727C52.0785 219.48 50.37 220.329 48.8275 221.465C48.3183 221.838 47.7057 222.318 47.1042 221.849C46.4621 221.347 46.9824 220.702 47.1706 220.115C47.4031 219.388 47.8791 218.871 48.4769 218.429C50.5397 216.912 52.7612 215.775 55.2594 215.093C58.7982 214.122 62.3001 213.019 65.9681 212.624C69.8427 212.211 73.6841 211.513 77.5993 211.465C78.9351 211.45 80.0938 211.845 81.1603 212.576C81.6843 212.938 82.2119 213.281 82.7655 213.591C84.5109 214.554 85.581 215.978 85.7065 218.023C85.736 218.521 85.7877 219.015 85.8282 219.513L85.8246 219.499ZM132.608 245.813C132.564 245.126 132.493 243.994 132.412 242.861C132.036 237.61 130.759 232.61 128.279 227.942C127.803 227.045 127.811 227.026 126.814 227.255C124.194 227.857 121.744 228.923 119.371 230.152C116.545 231.617 113.984 233.48 111.486 235.447C108.176 238.049 106.415 241.366 106.371 245.606C106.338 248.566 107.474 250.942 109.914 252.529C112.109 253.957 114.423 255.234 116.869 256.204C118.567 256.876 120.397 257.06 122.209 256.964C123.371 256.902 124.512 256.462 125.674 256.307C128.397 255.946 130.313 254.433 131.755 252.2C132.309 251.348 132.659 250.444 132.611 249.389C132.564 248.348 132.6 247.304 132.6 245.813H132.608ZM149.545 225.023C147.955 225.071 146.56 225.639 145.11 225.938C142.339 226.51 139.881 227.923 137.243 228.849C136.213 229.211 135.25 229.658 134.35 230.296C133.693 230.761 133.634 230.82 134.076 232.023C134.368 232.813 134.877 232.407 135.283 232.248C138.438 231.023 141.586 229.779 144.734 228.532C146.173 227.96 147.479 227.148 148.693 226.196C149.032 225.93 149.483 225.735 149.545 225.023V225.023ZM151.523 239.739C151.195 239.529 150.97 239.584 150.745 239.602C148.612 239.772 146.579 240.399 144.523 240.927C141.981 241.58 139.49 242.385 137.01 243.23C136.516 243.399 136.268 243.591 136.375 244.185C136.501 244.883 136.49 245.606 136.541 246.418C137.25 246.075 137.826 245.61 138.523 245.422C141.977 244.492 145.258 243.064 148.612 241.857C149.302 241.61 149.922 241.248 150.534 240.868C150.951 240.61 151.335 240.311 151.52 239.739H151.523Z" fill="#FF611D"></path><path fill-rule="evenodd" clip-rule="evenodd" d="M139.914 88.3695C138.711 89.196 137.859 90.1887 136.966 91.126C135.999 92.1408 134.999 93.1223 134.113 94.2183C132.837 95.794 130.619 95.9268 129.161 94.6058C127.711 93.2921 127.648 91.1075 129.047 89.6241C131.187 87.351 133.386 85.1332 135.778 83.1184C135.844 83.0631 135.885 82.9782 135.962 82.8749C135.486 81.945 134.623 81.314 134.006 80.48C133.25 79.4578 132.49 78.4357 132.017 77.2585C131.449 75.8489 131.482 74.4282 132.349 73.1072C132.958 72.1772 133.755 71.8599 134.796 72.1883C135.53 72.4171 136.257 72.7345 136.851 73.2142C138.01 74.1441 139.276 74.9744 140.158 76.2105C140.612 76.8489 141.217 77.3028 141.848 77.7936C143.228 76.6423 144.575 75.5057 146.04 74.5205C147.099 73.812 148.206 73.2179 149.472 72.9596C150.793 72.6865 151.903 73.1883 152.42 74.3101C152.903 75.3581 152.634 76.5648 151.627 77.3434C149.9 78.6755 148.331 80.1737 146.763 81.683C145.449 82.9487 145.317 83.5243 146.302 85.0262C147.767 87.2624 148.87 89.6942 150.162 92.0227C151.199 93.8936 150.545 96.0818 148.73 97.0486C146.859 98.0412 144.63 97.2995 143.697 95.3106C143.006 93.8382 142.143 92.4581 141.542 90.9378C141.18 90.0189 140.346 89.3769 139.914 88.3732V88.3695Z" fill="#007BFC"></path><path fill-rule="evenodd" clip-rule="evenodd" d="M184.266 82.9114C186.303 84.4206 188.447 85.3911 190.535 86.4502C191.62 87 192.351 87.7897 192.576 88.9963C192.838 90.4133 192.436 91.6089 191.277 92.4872C190.126 93.3618 188.886 93.4171 187.561 92.8599C185.122 91.834 182.985 90.31 180.812 88.8414C179.816 88.1661 179.756 88.1144 179.077 89.0554C177.469 91.2916 175.491 93.2437 174.17 95.7087C173.21 97.4947 171.011 97.9412 169.328 96.8932C167.708 95.8821 167.162 93.7972 168.158 92.1293C169.69 89.5609 171.454 87.155 173.546 85.0073C173.609 84.9409 173.668 84.8708 173.727 84.8044C174.443 84.011 174.457 83.9925 173.635 83.3689C172.657 82.6272 171.79 81.7785 170.926 80.9076C170.192 80.1659 169.801 79.2581 169.45 78.343C168.959 77.0551 169.535 75.6824 170.745 74.9481C171.738 74.3429 173.074 74.5016 173.922 75.5939C175.052 77.0515 176.635 77.819 178.089 78.8043C178.609 79.1548 178.867 79.0146 179.207 78.6124C180.756 76.7747 182.421 75.0588 184.299 73.5458C185.402 72.6602 186.535 71.8705 187.93 71.4978C189.255 71.1399 190.93 71.7746 191.565 72.985C191.919 73.6602 191.967 74.3909 191.535 75.0588C191.292 75.4352 191.026 75.8706 190.657 76.0809C189.358 76.8337 188.546 78.0404 187.605 79.1327C186.546 80.3652 185.45 81.5718 184.262 82.9077L184.266 82.9114Z" fill="#FF611D"></path><path fill-rule="evenodd" clip-rule="evenodd" d="M156.387 116.904C156.49 118.273 156.273 119.609 155.856 120.908C155.557 121.842 155.055 122.62 154.047 122.945C152.387 123.48 150.272 122.266 150.062 120.502C149.793 118.277 150.033 116.078 151.033 114.03C151.634 112.793 153.084 112.181 154.475 112.469C155.405 112.661 156.269 113.779 156.38 115.011C156.435 115.638 156.391 116.273 156.391 116.904H156.387Z" fill="#FFB800"></path><path fill-rule="evenodd" clip-rule="evenodd" d="M176.896 227.736C176.885 228.6 176.83 229.445 176.461 230.253C176.033 231.194 175.276 231.596 174.302 231.596C173.273 231.596 172.354 231.101 172.014 230.186C171.398 228.529 171.468 226.81 172.365 225.223C173 224.098 173.693 223.817 174.812 223.991C175.981 224.171 176.487 224.987 176.749 225.991C176.893 226.548 176.852 227.153 176.896 227.74V227.736Z" fill="#014996"></path><path fill-rule="evenodd" clip-rule="evenodd" d="M174.107 240.362C174.081 239.469 174.31 238.638 174.915 237.989C175.804 237.037 177.365 237.199 178.262 238.159C179.443 239.424 179.38 241.904 178.55 242.937C177.808 243.86 176.941 243.764 175.985 243.616C175.085 243.476 174.502 243.022 174.302 242.107C174.177 241.531 174.096 240.952 174.103 240.362H174.107Z" fill="#014996"></path></svg>