<svg xmlns="http://www.w3.org/2000/svg" width="1760" height="652" viewBox="0 0 1760 652" fill="none"><path d="M170.163 114.649L166.927 108.734C166.391 107.755 164.984 107.755 164.448 108.734L161.213 114.649C161.086 114.884 160.891 115.085 160.65 115.212L154.734 118.448C153.756 118.984 153.756 120.391 154.734 120.927L160.65 124.162C160.884 124.29 161.086 124.484 161.213 124.725L164.448 130.641C164.984 131.619 166.391 131.619 166.927 130.641L170.163 124.725C170.29 124.491 170.485 124.29 170.726 124.162L176.641 120.927C177.62 120.391 177.62 118.984 176.641 118.448L170.726 115.212C170.491 115.085 170.29 114.89 170.163 114.649Z" fill="#03D1AA"></path><path d="M1555.27 625.155L1550.74 620.164C1549.99 619.339 1548.62 619.669 1548.33 620.745L1546.57 627.255C1546.5 627.513 1546.36 627.754 1546.16 627.934L1541.16 632.467C1540.34 633.218 1540.67 634.585 1541.75 634.877L1548.26 636.635C1548.51 636.703 1548.75 636.845 1548.93 637.05L1553.47 642.041C1554.22 642.866 1555.59 642.536 1555.88 641.46L1557.64 634.95C1557.7 634.692 1557.85 634.451 1558.05 634.271L1563.04 629.738C1563.87 628.988 1563.54 627.62 1562.46 627.328L1555.95 625.571C1555.69 625.502 1555.45 625.36 1555.27 625.155Z" fill="#03D1AA"></path><path d="M1462.12 408.953L1467.82 412.068C1468.76 412.584 1468.76 413.943 1467.82 414.459L1462.12 417.574C1461.89 417.702 1461.7 417.889 1461.58 418.117L1458.46 423.818C1457.94 424.763 1456.58 424.763 1456.07 423.818L1452.95 418.117C1452.83 417.889 1452.64 417.702 1452.41 417.574L1446.71 414.459C1445.76 413.943 1445.76 412.584 1446.71 412.068L1452.41 408.953C1452.64 408.825 1452.83 408.638 1452.95 408.41L1456.07 402.708C1456.58 401.764 1457.94 401.764 1458.46 402.708L1461.58 408.41C1461.7 408.638 1461.89 408.825 1462.12 408.953Z" fill="#FF7CE2"></path><path d="M224.999 364.964C224.999 367.706 227.222 369.928 229.964 369.928C232.705 369.928 234.928 367.706 234.928 364.964C234.928 362.222 232.705 360 229.964 360C227.222 360 224.999 362.222 224.999 364.964Z" fill="#BD509D"></path><path d="M1417.61 106.775L1415.28 102.528C1414.9 101.824 1413.88 101.824 1413.5 102.528L1411.18 106.775C1411.08 106.943 1410.94 107.083 1410.78 107.177L1406.53 109.502C1405.82 109.89 1405.82 110.902 1406.53 111.284L1410.78 113.608C1410.94 113.702 1411.08 113.843 1411.18 114.01L1413.5 118.258C1413.89 118.961 1414.9 118.961 1415.28 118.258L1417.61 114.01C1417.7 113.843 1417.84 113.702 1418.01 113.608L1422.26 111.284C1422.96 110.895 1422.96 109.884 1422.26 109.502L1418.01 107.177C1417.84 107.083 1417.7 106.943 1417.61 106.775Z" fill="#D3ADAB"></path><path d="M1754.61 384.775L1752.28 380.528C1751.9 379.824 1750.88 379.824 1750.5 380.528L1748.18 384.775C1748.08 384.943 1747.94 385.083 1747.78 385.177L1743.53 387.502C1742.82 387.89 1742.82 388.902 1743.53 389.284L1747.78 391.608C1747.94 391.702 1748.08 391.843 1748.18 392.01L1750.5 396.258C1750.89 396.961 1751.9 396.961 1752.28 396.258L1754.61 392.01C1754.7 391.843 1754.84 391.702 1755.01 391.608L1759.26 389.284C1759.96 388.895 1759.96 387.884 1759.26 387.502L1755.01 385.177C1754.84 385.083 1754.7 384.943 1754.61 384.775Z" fill="#007BFC"></path><path d="M819.608 608.775L817.284 604.528C816.895 603.824 815.883 603.824 815.502 604.528L813.177 608.775C813.083 608.943 812.943 609.083 812.775 609.177L808.527 611.502C807.824 611.89 807.824 612.902 808.527 613.284L812.775 615.608C812.943 615.702 813.083 615.843 813.177 616.01L815.502 620.258C815.89 620.961 816.902 620.961 817.284 620.258L819.608 616.01C819.702 615.843 819.843 615.702 820.01 615.608L824.258 613.284C824.961 612.895 824.961 611.884 824.258 611.502L820.01 609.177C819.843 609.083 819.702 608.943 819.608 608.775Z" fill="#007BFC"></path><path d="M1130.93 626.14L1135.45 627.892C1136.2 628.18 1136.97 627.529 1136.81 626.745L1135.85 621.998C1135.82 621.81 1135.83 621.611 1135.9 621.432L1137.65 616.918C1137.94 616.167 1137.29 615.394 1136.51 615.554L1131.76 616.512C1131.57 616.548 1131.37 616.531 1131.19 616.463L1126.68 614.711C1125.93 614.423 1125.15 615.074 1125.32 615.858L1126.27 620.605C1126.31 620.793 1126.29 620.992 1126.22 621.171L1124.47 625.685C1124.18 626.435 1124.84 627.209 1125.62 627.048L1130.37 626.091C1130.55 626.055 1130.75 626.072 1130.93 626.14Z" fill="#007BFC"></path><path d="M60.2782 337.557C55.1537 337.557 50.9995 333.403 50.9995 328.279C50.9995 323.154 55.1537 319 60.2782 319C65.4027 319 69.5566 323.154 69.5566 328.279C69.5566 333.403 65.4027 337.557 60.2782 337.557Z" fill="#EF618E"></path><path d="M1605.26 176.518C1600.7 176.518 1597 172.821 1597 168.259C1597 163.698 1600.7 160 1605.26 160C1609.82 160 1613.52 163.698 1613.52 168.259C1613.52 172.821 1609.82 176.518 1605.26 176.518Z" fill="#03D1AA"></path><path d="M50.2586 651.518C45.6972 651.518 41.9994 647.821 41.9994 643.259C41.9994 638.698 45.6972 635 50.2586 635C54.8201 635 58.5176 638.698 58.5176 643.259C58.5176 647.821 54.82 651.518 50.2586 651.518Z" fill="#03D1AA"></path><path d="M1006.96 69.9286C1004.22 69.9286 1002 67.7059 1002 64.9642C1002 62.2225 1004.22 60 1006.96 60C1009.71 60 1011.93 62.2225 1011.93 64.9642C1011.93 67.7059 1009.71 69.9286 1006.96 69.9286Z" fill="#BD509D"></path><path d="M1001 92.9266C1001 95.0952 1002.76 96.8535 1004.93 96.8535C1007.1 96.8535 1008.85 95.0952 1008.85 92.9266C1008.85 90.7579 1007.1 89 1004.93 89C1002.76 89 1001 90.7579 1001 92.9266Z" fill="#D3ADAB"></path><path d="M901.01 46.1769L905.258 48.5014C905.961 48.89 905.961 49.9017 905.258 50.2836L901.01 52.6081C900.843 52.7019 900.702 52.8427 900.608 53.0101L898.283 57.2578C897.895 57.9612 896.883 57.9612 896.501 57.2578L894.177 53.0101C894.083 52.8427 893.942 52.7019 893.775 52.6081L889.527 50.2836C888.824 49.895 888.824 48.8833 889.527 48.5014L893.775 46.1769C893.942 46.0831 894.083 45.9424 894.177 45.7749L896.501 41.5276C896.89 40.8241 897.902 40.8241 898.283 41.5276L900.608 45.7749C900.702 45.9424 900.843 46.0831 901.01 46.1769Z" fill="#007BFC"></path><path d="M600.278 84.5573C595.154 84.5573 590.999 80.4032 590.999 75.2788C590.999 70.1543 595.154 66 600.278 66C605.403 66 609.557 70.1543 609.557 75.2788C609.557 80.4032 605.403 84.5573 600.278 84.5573Z" fill="#EF618E"></path><path d="M740.923 7.85333C738.754 7.85333 736.996 6.09522 736.996 3.92658C736.996 1.75794 738.754 -3.39116e-07 740.923 -2.1846e-07C743.092 -9.78053e-08 744.85 1.75794 744.85 3.92658C744.85 6.09523 743.092 7.85333 740.923 7.85333Z" fill="#FF611D"></path><path d="M808.302 127.814C806.133 127.814 804.375 126.056 804.375 123.888C804.375 121.719 806.133 119.961 808.302 119.961C810.471 119.961 812.229 121.719 812.229 123.888C812.229 126.056 810.471 127.814 808.302 127.814Z" fill="#8D70B1"></path><path d="M412.259 147.518C407.697 147.518 403.999 143.821 403.999 139.259C403.999 134.698 407.697 131 412.259 131C416.82 131 420.518 134.698 420.518 139.259C420.518 143.821 416.82 147.518 412.259 147.518Z" fill="#007BFC"></path><path d="M1737.32 648.069C1732.89 649.139 1728.43 646.412 1727.36 641.978C1726.29 637.544 1729.01 633.082 1733.45 632.012C1737.88 630.942 1742.34 633.669 1743.41 638.103C1744.48 642.537 1741.76 646.999 1737.32 648.069Z" fill="#007BFC"></path><path d="M1363.81 314.943C1361.71 315.464 1360.42 317.592 1360.94 319.698C1361.46 321.803 1363.59 323.087 1365.7 322.566C1367.8 322.045 1369.09 319.917 1368.57 317.811C1368.05 315.706 1365.92 314.422 1363.81 314.943Z" fill="#FF6B00"></path><path d="M337.812 560.943C335.707 561.464 334.422 563.592 334.943 565.698C335.464 567.803 337.593 569.087 339.698 568.566C341.803 568.045 343.088 565.917 342.567 563.811C342.046 561.706 339.917 560.422 337.812 560.943Z" fill="#FF6B00"></path><path d="M1717.66 170.481C1717.14 168.376 1718.42 166.247 1720.52 165.726C1722.63 165.205 1724.76 166.489 1725.28 168.595C1725.8 170.7 1724.52 172.829 1722.41 173.349C1720.31 173.87 1718.18 172.586 1717.66 170.481Z" fill="#D3ADAB"></path><path d="M162.656 645.481C162.135 643.376 163.419 641.247 165.525 640.726C167.63 640.205 169.759 641.489 170.28 643.595C170.8 645.7 169.516 647.829 167.411 648.349C165.306 648.87 163.177 647.586 162.656 645.481Z" fill="#D3ADAB"></path><path d="M1540.47 124.698C1539.95 122.592 1541.24 120.463 1543.34 119.943C1545.45 119.422 1547.58 120.706 1548.1 122.811C1548.62 124.917 1547.33 127.045 1545.23 127.566C1543.12 128.087 1540.99 126.803 1540.47 124.698Z" fill="#8D70B1"></path><path d="M1314.39 197.658L1319.17 193.264C1319.96 192.537 1319.64 191.217 1318.6 190.943L1312.31 189.288C1312.06 189.219 1311.84 189.082 1311.66 188.892L1307.26 184.105C1306.54 183.312 1305.22 183.639 1304.94 184.68L1303.29 190.963C1303.22 191.214 1303.08 191.441 1302.89 191.62L1298.11 196.013C1297.31 196.741 1297.64 198.061 1298.68 198.335L1304.96 199.989C1305.21 200.058 1305.44 200.195 1305.62 200.386L1310.01 205.172C1310.74 205.965 1312.06 205.638 1312.33 204.597L1313.99 198.315C1314.06 198.063 1314.19 197.836 1314.39 197.658Z" fill="#7BD7FF"></path><path d="M986.572 580.853L981.877 579.669C981.099 579.469 980.845 578.489 981.43 577.943L984.959 574.627C985.098 574.495 985.199 574.323 985.247 574.138L986.432 569.443C986.632 568.664 987.611 568.411 988.157 568.996L991.473 572.525C991.606 572.663 991.777 572.764 991.963 572.813L996.658 573.998C997.436 574.198 997.69 575.177 997.105 575.723L993.576 579.039C993.438 579.171 993.337 579.343 993.288 579.529L992.103 584.223C991.903 585.002 990.924 585.255 990.378 584.67L987.062 581.142C986.929 581.003 986.758 580.902 986.572 580.853Z" fill="#D3ADAB"></path><path d="M1513.59 535.801C1513.04 533.702 1510.9 532.441 1508.8 532.985C1506.7 533.529 1505.44 535.672 1505.98 537.771C1506.53 539.871 1508.67 541.131 1510.77 540.587C1512.87 540.043 1514.13 537.901 1513.59 535.801Z" fill="#8D70B1"></path><path d="M1367.44 453.995C1366.3 449.579 1361.79 446.927 1357.38 448.071C1352.96 449.215 1350.31 453.722 1351.45 458.138C1352.6 462.553 1357.1 465.205 1361.52 464.061C1365.94 462.917 1368.59 458.41 1367.44 453.995Z" fill="#EF618E"></path><path d="M595.805 556.245C598.459 555.558 601.169 557.152 601.856 559.806C602.544 562.46 600.95 565.169 598.296 565.857C595.642 566.544 592.933 564.95 592.245 562.296C591.557 559.642 593.151 556.933 595.805 556.245Z" fill="#BD509D"></path><path d="M402.91 373L405.906 379.041C406.403 380.039 407.808 380.096 408.383 379.14L411.853 373.358C411.989 373.129 412.192 372.936 412.438 372.819L418.478 369.822C419.477 369.326 419.533 367.92 418.577 367.345L412.796 363.875C412.567 363.739 412.374 363.537 412.256 363.29L409.26 357.25C408.763 356.251 407.358 356.195 406.783 357.151L403.313 362.932C403.176 363.161 402.974 363.355 402.728 363.472L396.688 366.469C395.689 366.965 395.633 368.371 396.589 368.945L402.37 372.415C402.599 372.552 402.792 372.754 402.91 373Z" fill="#03D1AA"></path><path d="M9.23771 152.158C11.4046 152.244 13.0908 154.071 13.004 156.238C12.9172 158.405 11.0903 160.092 8.92344 160.005C6.75653 159.918 5.07035 158.091 5.15714 155.924C5.24392 153.757 7.07081 152.071 9.23771 152.158Z" fill="#8D70B1"></path><path d="M149.616 454.405C154.174 454.588 157.721 458.431 157.539 462.989C157.356 467.546 153.513 471.093 148.955 470.911C144.398 470.728 140.851 466.885 141.034 462.328C141.216 457.77 145.059 454.223 149.616 454.405Z" fill="#FF6B00"></path><path d="M366.913 476.331C371.471 476.514 375.018 480.356 374.835 484.914C374.653 489.472 370.81 493.019 366.252 492.836C361.695 492.654 358.148 488.811 358.331 484.253C358.513 479.695 362.356 476.149 366.913 476.331Z" fill="#007BFC"></path><path d="M60 19C60 20.6568 61.3431 22 63 22C64.6568 22 66 20.6568 66 19C66 17.3432 64.6568 16 63 16C61.3431 16 60 17.3432 60 19Z" fill="#FC7BDF"></path><path d="M423.726 22.2119L429.641 25.4477C430.62 25.9837 430.62 27.3907 429.641 27.9267L423.726 31.1622C423.491 31.2895 423.29 31.484 423.163 31.7252L419.927 37.6408C419.391 38.6189 417.984 38.6189 417.448 37.6408L414.213 31.7252C414.085 31.4907 413.891 31.2895 413.65 31.1622L407.734 27.9267C406.756 27.3907 406.756 25.9837 407.734 25.4477L413.65 22.2119C413.884 22.0846 414.085 21.8904 414.213 21.6492L417.448 15.7336C417.984 14.7555 419.391 14.7555 419.927 15.7336L423.163 21.6492C423.29 21.8837 423.485 22.0846 423.726 22.2119Z" fill="#FF9338"></path><path d="M1719.08 558.57L1725.59 560.328C1726.66 560.62 1726.99 561.988 1726.17 562.738L1721.18 567.271C1720.98 567.45 1720.83 567.686 1720.76 567.95L1719 574.46C1718.71 575.536 1717.34 575.866 1716.59 575.041L1712.06 570.05C1711.88 569.852 1711.64 569.702 1711.38 569.635L1704.87 567.877C1703.79 567.585 1703.46 566.218 1704.29 565.467L1709.28 560.934C1709.48 560.755 1709.63 560.519 1709.7 560.255L1711.45 553.745C1711.75 552.669 1713.11 552.339 1713.86 553.164L1718.4 558.155C1718.58 558.354 1718.81 558.503 1719.08 558.57Z" fill="#FF9338"></path><path d="M1246.26 74.5183C1241.7 74.5183 1238 70.8207 1238 66.2592C1238 61.6978 1241.7 58 1246.26 58C1250.82 58 1254.52 61.6978 1254.52 66.2592C1254.52 70.8207 1250.82 74.5183 1246.26 74.5183Z" fill="#03D1AA"></path><path d="M1683.61 32.7751L1681.28 28.5276C1680.9 27.8241 1679.88 27.8241 1679.5 28.5276L1677.18 32.7751C1677.08 32.9426 1676.94 33.0833 1676.78 33.1771L1672.53 35.5018C1671.82 35.8903 1671.82 36.9019 1672.53 37.2838L1676.78 39.6084C1676.94 39.7022 1677.08 39.843 1677.18 40.0105L1679.5 44.258C1679.89 44.9614 1680.9 44.9614 1681.28 44.258L1683.61 40.0105C1683.7 39.843 1683.84 39.7022 1684.01 39.6084L1688.26 37.2838C1688.96 36.8952 1688.96 35.8836 1688.26 35.5018L1684.01 33.1771C1683.84 33.0833 1683.7 32.9426 1683.61 32.7751Z" fill="#FFB800"></path><path d="M1449 276.259C1449 280.82 1452.7 284.518 1457.26 284.518C1461.82 284.518 1465.52 280.82 1465.52 276.259C1465.52 271.698 1461.82 268 1457.26 268C1452.7 268 1449 271.698 1449 276.259Z" fill="#FFB800"></path><path d="M422.999 522.259C422.999 526.82 426.697 530.518 431.258 530.518C435.82 530.518 439.518 526.82 439.518 522.259C439.518 517.698 435.82 514 431.258 514C426.697 514 422.999 517.698 422.999 522.259Z" fill="#FFB800"></path><path d="M1680.26 327.518C1675.7 327.518 1672 323.821 1672 319.259C1672 314.698 1675.7 311 1680.26 311C1684.82 311 1688.52 314.698 1688.52 319.259C1688.52 323.821 1684.82 327.518 1680.26 327.518Z" fill="#801EFD"></path><path d="M654.258 573.518C649.697 573.518 645.999 569.821 645.999 565.259C645.999 560.698 649.697 557 654.258 557C658.82 557 662.518 560.698 662.518 565.259C662.518 569.821 658.82 573.518 654.258 573.518Z" fill="#801EFD"></path><path d="M1224.69 622.06C1228.18 619.122 1233.39 619.569 1236.32 623.059C1239.26 626.548 1238.81 631.759 1235.32 634.696C1231.83 637.634 1226.62 637.187 1223.69 633.697C1220.75 630.208 1221.2 624.998 1224.69 622.06Z" fill="#801EFD"></path><path d="M263.999 229.278C263.999 234.403 268.153 238.557 273.278 238.557C278.402 238.557 282.557 234.403 282.557 229.278C282.557 224.154 278.402 220 273.278 220C268.153 220 263.999 224.154 263.999 229.278Z" fill="#FF7CE2"></path><path d="M1129.57 56.4097L1126.46 50.7085C1125.94 49.7638 1124.58 49.7638 1124.07 50.7085L1120.95 56.4097C1120.83 56.6374 1120.64 56.8249 1120.41 56.9522L1114.71 60.0675C1113.76 60.5834 1113.76 61.9434 1114.71 62.4593L1120.41 65.5744C1120.64 65.7017 1120.83 65.8893 1120.95 66.1171L1124.07 71.8183C1124.58 72.7629 1125.94 72.7629 1126.46 71.8183L1129.57 66.1171C1129.7 65.8893 1129.89 65.7017 1130.12 65.5744L1135.82 62.4593C1136.76 61.9434 1136.76 60.5834 1135.82 60.0675L1130.12 56.9522C1129.89 56.8249 1129.7 56.6375 1129.57 56.4097Z" fill="#FFB800"></path><path d="M1448.93 22.8535C1446.76 22.8535 1445 21.0954 1445 18.9267C1445 16.7581 1446.76 15 1448.93 15C1451.1 15 1452.85 16.7581 1452.85 18.9267C1452.85 21.0954 1451.1 22.8535 1448.93 22.8535Z" fill="#8D70B1"></path><path d="M387.927 265.853C385.758 265.853 384 264.095 384 261.927C384 259.758 385.758 258 387.927 258C390.096 258 391.854 259.758 391.854 261.927C391.854 264.095 390.096 265.853 387.927 265.853Z" fill="#D3ADAB"></path><path d="M1557.18 339.62C1558.38 341.426 1560.81 341.915 1562.62 340.713C1564.43 339.512 1564.91 337.074 1563.71 335.269C1562.51 333.463 1560.07 332.974 1558.27 334.176C1556.46 335.378 1555.97 337.815 1557.18 339.62Z" fill="#8D70B1"></path><path d="M531.175 585.62C532.377 587.426 534.815 587.915 536.62 586.713C538.425 585.512 538.915 583.074 537.713 581.269C536.511 579.463 534.074 578.974 532.268 580.176C530.463 581.378 529.974 583.815 531.175 585.62Z" fill="#8D70B1"></path><path d="M1311.05 533.533C1308.97 532.926 1306.79 534.122 1306.18 536.204C1305.57 538.285 1306.77 540.465 1308.85 541.073C1310.93 541.68 1313.11 540.484 1313.72 538.402C1314.33 536.32 1313.13 534.14 1311.05 533.533Z" fill="#8D70B1"></path><path d="M1627.31 441.844L1623.02 439.596C1622.31 439.226 1621.47 439.786 1621.54 440.583L1621.96 445.407C1621.97 445.599 1621.93 445.794 1621.84 445.965L1619.6 450.253C1619.23 450.967 1619.79 451.809 1620.58 451.737L1625.41 451.318C1625.6 451.304 1625.79 451.343 1625.96 451.43L1630.25 453.678C1630.97 454.048 1631.81 453.488 1631.74 452.69L1631.32 447.867C1631.3 447.675 1631.34 447.48 1631.43 447.309L1633.68 443.021C1634.05 442.307 1633.49 441.465 1632.69 441.537L1627.87 441.955C1627.68 441.97 1627.48 441.931 1627.31 441.844Z" fill="#FF6B00"></path><path d="M1191.56 500.5L1196.29 499.457C1197.08 499.281 1197.36 498.31 1196.79 497.747L1193.36 494.326C1193.23 494.189 1193.13 494.014 1193.09 493.827L1192.05 489.099C1191.87 488.315 1190.9 488.031 1190.34 488.6L1186.92 492.027C1186.78 492.161 1186.61 492.257 1186.42 492.3L1181.69 493.343C1180.91 493.519 1180.62 494.49 1181.19 495.054L1184.62 498.474C1184.75 498.611 1184.85 498.786 1184.89 498.973L1185.93 503.701C1186.11 504.485 1187.08 504.768 1187.65 504.2L1191.07 500.773C1191.2 500.639 1191.38 500.543 1191.56 500.5Z" fill="#FF6B00"></path><path d="M3.92693 513.853C1.75829 513.853 2.15954e-05 512.095 2.1716e-05 509.927C2.18367e-05 507.758 1.75829 506 3.92693 506C6.09558 506 7.85352 507.758 7.85352 509.927C7.85352 512.095 6.09557 513.853 3.92693 513.853Z" fill="#8D70B1"></path></svg>